# AST/ASF file generated using VICON BodyLanguage
# -----------------------------------------------
:version 1.10
:name VICON
:units
  mass 1.0
  length 0.45
  angle deg
:documentation
   .ast/.asf automatically generated from VICON data using
   VICON BodyBuilder and BodyLanguage model FoxedUp or BRILLIANT.MOD
:root
   order TX TY TZ RX RY RZ
   axis XYZ
   position 0 0 0  
   orientation 0 0 0 
:bonedata
  begin
     id 1 
     name lhipjoint
     direction 0.623415 -0.642378 0.445763 
     length 2.49859 
     axis 0 0 0  XYZ
  end
  begin
     id 2 
     name lfemur
     direction 0.34202 -0.939693 0  
     length 6.69689  
     axis 0 0 20  XYZ
    dof rx ry rz
    limits (-160.0 20.0)
           (-70.0 70.0)
           (-60.0 70.0)
  end
  begin
     id 3 
     name ltibia
     direction 0.34202 -0.939693 0   
     length 7.37574   
     axis 0 0 20   XYZ
    dof rx
    limits (-10.0 170.0)
  end
  begin
     id 4 
     name lfoot
     direction 0.084323 -0.231675 0.969132   
     length 2.09111   
     axis -90 7.62852e-016 20   XYZ
    dof rx rz
    limits (-45.0 90.0)
           (-70.0 20.0)
  end
  begin
     id 5 
     name ltoes
     direction 1.5357e-011 -4.21957e-011 1   
     length 1.04989   
     axis -90 7.62852e-016 20   XYZ
    dof rx
    limits (-90.0 20.0)
  end
  begin
     id 6 
     name rhipjoint
     direction -0.605402 -0.653903 0.45376   
     length 2.45455  
     axis 0 0 0  XYZ 
  end
  begin
     id 7 
     name rfemur
     direction -0.34202 -0.939693 0   
     length 6.64523   
     axis 0 0 -20   XYZ
    dof rx ry rz
    limits (-160.0 20.0)
           (-70.0 70.0)
           (-70.0 60.0)
  end
  begin
     id 8 
     name rtibia
     direction -0.34202 -0.939693 0   
     length 7.3339   
     axis 0 0 -20   XYZ
    dof rx
    limits (-10.0 170.0)
 end
 begin
     id 9 
     name rfoot
     direction -0.120854 -0.332043 0.93549   
     length 2.23135  
     axis -90 -7.62852e-016 -20   XYZ
    dof rx rz
    limits (-45.0 90.0)
           (-20.0 70.0)
  end
  begin
     id 10 
     name rtoes
     direction -1.53563e-011 -4.21914e-011 1   
     length 1.10614   
     axis -90 -7.62852e-016 -20   XYZ
    dof rx
    limits (-90.0 20.0)
  end
  begin
     id 11 
     name lowerback
     direction 0.0319682 0.998615 -0.0417941   
     length 2.02718   
     axis 0 0 0   XYZ
    dof rx ry rz
    limits (-20.0 45.0)
           (-30.0 30.0)
           (-30.0 30.0)
  end
  begin
     id 12 
     name upperback
     direction 7.63181e-005 0.995808 0.0914691   
     length 1.97539   
     axis 0 0 0   XYZ
    dof rx ry rz
    limits (-20.0 45.0)
           (-30.0 30.0)
           (-30.0 30.0)
  end
  begin
     id 13 
     name thorax
     direction -0.016423 0.993627 0.111514   
     length 2.00349   
     axis 0 0 0   XYZ
    dof rx ry rz
    limits (-20.0 45.0)
           (-30.0 30.0)
           (-30.0 30.0)
  end
  begin
     id 14 
     name lowerneck
     direction -0.174763 0.981668 -0.0760716   
     length 1.71436   
     axis 0 0 0   XYZ
    dof rx ry rz
    limits (-20.0 45.0)
           (-30.0 30.0)
           (-30.0 30.0)
  end
  begin
     id 15 
     name upperneck
     direction 0.345458 0.934587 -0.0848868   
     length 1.72805   
     axis 0 0 0   XYZ
    dof rx ry rz
    limits (-20.0 45.0)
           (-30.0 30.0)
           (-30.0 30.0)
  end
  begin
     id 16
     name head
     direction 0.13001 0.989848 -0.0574291  
     length 1.767  
     axis 0 0 0   XYZ
    dof rx ry rz
    limits (-20.0 45.0)
           (-30.0 30.0)
           (-30.0 30.0)
  end
  begin
     id 17 
     name lclavicle
     direction 0.952951 0.290122 0.0878234  
     length 3.54654  
     axis 0 0 0   XYZ
    dof ry rz
    limits (-20.0 10.0)
           (0.0 20.0)
  end
  begin
     id 18 
     name lhumerus
     direction 1 -4.48957e-011 -4.56525e-028   
     length 5.19807   
     axis 180 -30 -90   XYZ
    dof rx ry rz
    limits (-60.0 90.0)
           (-90.0 90.0)
           (-90.0 90.0)
  end
  begin
     id 19
     name lradius
     direction 1 -4.48979e-011 -2.0317e-027   
     length 3.0937   
     axis 180 -30 -90   XYZ
    dof rx
    limits (-10.0 170.0)
  end
  begin
     id 20
     name lwrist
     direction 1 -4.48953e-011 -3.05809e-027   
     length 1.54685   
     axis 8.48514e-016 90 90   XYZ
    dof ry
    limits (-180.0 0.0)
 end
  begin
     id 21 
     name lhand
     direction 1 -4.48952e-011 -6.11639e-027   
     length 0.672632   
     axis 3.9013e-015 90 90   XYZ
    dof rx rz
    limits (-90.0 90.0)
           (-45.0 45.0)
  end
  begin
     id 22 
     name lfingers
     direction 1 -4.48925e-011 -1.22426e-026   
     length 0.542293   
     axis 7.80276e-015 90 90   XYZ
    dof rx
    limits (0.0 90.0)
  end
  begin
     id 23
     name lthumb
     direction 0.707107 -6.3486e-011 0.707107   
     length 0.778628   
     axis -90 45 5.37419e-014   XYZ
    dof rx rz
    limits (-45.0 45.0)
           (-45.0 45.0)
  end
  begin
     id 24 
     name rclavicle
     direction -0.960732 0.273675 -0.0457849   
     length 3.52079  
     axis 0 0 0   XYZ 
    dof ry rz
    limits (-10.0 20.0)
           (-20.0 0.0)
  end
  begin
     id 25 
     name rhumerus
     direction -1 -4.48976e-011 -1.63613e-027  
     length 5.45222   
     axis 180 30 90   XYZ
    dof rx ry rz
    limits (-90.0 60.0)
           (-90.0 90.0)
           (-90.0 90.0)
  end
  begin
     id 26 
     name rradius
     direction -1 -4.48957e-011 -7.00033e-028   
     length 3.01284   
     axis 180 30 90   XYZ
    dof rx
    limits (-10.0 170.0)
  end
  begin
     id 27 
     name rwrist
     direction -1 -4.48983e-011 -3.05543e-027   
     length 1.50642   
     axis 8.48514e-016 -90 -90   XYZ
    dof ry
    limits (-180.0 0.0)
  end
  begin
     id 28
     name rhand
     direction -1 -4.48984e-011 -6.11072e-027   
     length 0.622296   
     axis 3.9013e-015 -90 -90   XYZ
    dof rx rz
    limits (-90.0 90.0)
           (-45.0 45.0)
  end
  begin
     id 29
     name rfingers
     direction -1 -4.48865e-011 -1.22637e-026   
     length 0.501711   
     axis 7.80276e-015 -90 -90   XYZ
    dof rx
    limits (0.0 90.0)
  end
  begin
     id 30
     name rthumb
     direction -0.707107 -6.34932e-011 0.707107   
     length 0.72036   
     axis -90 -45 -5.37419e-014   XYZ
    dof rx rz
    limits (-45.0 45.0)
           (-45.0 45.0)
  end
:hierarchy
  begin
    root lhipjoint rhipjoint lowerback
    lhipjoint lfemur
    lfemur ltibia
    ltibia lfoot
    lfoot ltoes
    rhipjoint rfemur
    rfemur rtibia
    rtibia rfoot
    rfoot rtoes
    lowerback upperback
    upperback thorax
    thorax lowerneck lclavicle rclavicle
    lowerneck upperneck
    upperneck head
    lclavicle lhumerus
    lhumerus lradius
    lradius lwrist
    lwrist lhand lthumb
    lhand lfingers
    rclavicle rhumerus
    rhumerus rradius
    rradius rwrist
    rwrist rhand rthumb
    rhand rfingers
  end

#!OML:ASF H:\Not Pregnant\Project 1\Capture day 1\Session 1\non-pregnant.ASF
:FULLY-SPECIFIED
:DEGREES
176
root 4.38474 17.9001 21.1927 -170.339 18.0109 -180.84
lowerback 3.1331 3.49679 2.20373
upperback -7.92362 5.18613 -2.39854
thorax -9.74498 2.45228 -4.40266
lowerneck 12.4716 -11.5336 -31.1349
upperneck 6.44696 -20.1747 34.7534
head 7.2978 -10.5246 16.8192
rclavicle 7.01461e-014 1.59028e-015
rhumerus -34.1985 -11.6808 -82.099
rradius 24.7466
rwrist 31.3394
rhand -8.18033 -1.45281
rfingers 7.12502
rthumb 17.7353 -30.664
lclavicle 7.01461e-014 1.59028e-015
lhumerus -46.8214 -3.62358 84.6432
lradius 34.1434
lwrist 31.0682
lhand -11.1702 -10.6695
lfingers 7.12502
lthumb 14.8565 18.7779
rfemur -41.1621 -3.02513 22.302
rtibia 84.6392
rfoot 7.70064 6.36942
rtoes -15.2107
lfemur -29.2087 -2.96717 -24.3044
ltibia 38.9202
lfoot -17.147 -10.8647
ltoes -8.69488
177
root 4.39045 17.9393 21.1272 -170.384 17.9712 -180.819
lowerback 3.25334 3.40019 2.24178
upperback -7.87638 5.05259 -2.37532
thorax -9.77441 2.38027 -4.39244
lowerneck 12.3736 -11.4839 -31.1749
upperneck 6.55975 -20.1084 34.6574
head 7.31245 -10.4885 16.7912
rclavicle -5.15101e-014 -1.61016e-014
rhumerus -34.3896 -11.0998 -82.1766
rradius 25.2938
rwrist 30.2768
rhand -8.40237 -1.47437
rfingers 7.12502
rthumb 17.5216 -30.7048
lclavicle -5.15101e-014 -1.61016e-014
lhumerus -46.1192 -3.65259 84.5077
lradius 34.2638
lwrist 30.7645
lhand -11.6576 -11.0001
lfingers 7.12502
lthumb 14.3869 18.4813
rfemur -43.0116 -2.95316 22.5742
rtibia 86.6449
rfoot 6.17954 5.47255
rtoes -15.9937
lfemur -28.3785 -2.93203 -24.3519
ltibia 37.9486
lfoot -16.9236 -10.955
ltoes -8.67555
178
root 4.39717 17.977 21.0628 -170.45 17.9006 -180.827
lowerback 3.37818 3.29255 2.2335
upperback -7.81746 4.89923 -2.35135
thorax -9.79884 2.30203 -4.35278
lowerneck 12.2532 -11.4403 -31.2207
upperneck 6.67229 -20.0478 34.5719
head 7.33622 -10.4536 16.7669
rclavicle 1.02871e-014 -5.96354e-015
rhumerus -34.5754 -10.5414 -82.2401
rradius 25.8365
rwrist 29.2023
rhand -8.60863 -1.54541
rfingers 7.12502
rthumb 17.3231 -30.7934
lclavicle 1.02871e-014 -5.96354e-015
lhumerus -45.4338 -3.60587 84.34
lradius 34.4362
lwrist 30.5808
lhand -12.2047 -11.2587
lfingers 7.12502
lthumb 13.8597 18.2595
rfemur -44.8061 -2.86455 22.8151
rtibia 88.4792
rfoot 4.71076 4.62684
rtoes -16.4687
lfemur -27.5344 -2.9366 -24.4244
ltibia 36.9672
lfoot -16.6813 -11.0355
ltoes -8.72735
179
root 4.40488 18.0131 20.9988 -170.534 17.7968 -180.866
lowerback 3.50457 3.17416 2.18215
upperback -7.74688 4.72641 -2.33008
thorax -9.81555 2.21751 -4.28877
lowerneck 12.1168 -11.4033 -31.2487
upperneck 6.78758 -19.9894 34.4787
head 7.36114 -10.4175 16.7331
rclavicle -3.07122e-014 1.2921e-014
rhumerus -34.745 -10.026 -82.2845
rradius 26.3483
rwrist 28.166
rhand -8.83306 -1.64107
rfingers 7.12502
rthumb 17.1071 -30.9079
lclavicle -3.07122e-014 1.2921e-014
lhumerus -44.7429 -3.50417 84.1522
lradius 34.6321
lwrist 30.5571
lhand -12.8047 -11.4456
lfingers 7.12502
lthumb 13.2815 18.1112
rfemur -46.5404 -2.76309 23.0201
rtibia 90.1372
rfoot 3.29735 3.84436
rtoes -16.6971
lfemur -26.677 -2.97768 -24.5252
ltibia 35.9756
lfoot -16.4259 -11.1173
ltoes -8.82243
180
root 4.41369 18.0475 20.9353 -170.629 17.6534 -180.936
lowerback 3.63068 3.03971 2.08391
upperback -7.67059 4.52756 -2.30832
thorax -9.83077 2.12397 -4.19435
lowerneck 11.9628 -11.3719 -31.2687
upperneck 6.9086 -19.9345 34.3807
head 7.39079 -10.3812 16.6935
rclavicle 4.75592e-014 3.57812e-015
rhumerus -34.9056 -9.5433 -82.3101
rradius 26.8228
rwrist 27.1904
rhand -9.09763 -1.75429
rfingers 7.12502
rthumb 16.8525 -31.043
lclavicle 4.75592e-014 3.57812e-015
lhumerus -44.0597 -3.34258 83.9476
lradius 34.8528
lwrist 30.6831
lhand -13.4539 -11.6184
lfingers 7.12502
lthumb 12.6556 17.9781
rfemur -48.2171 -2.6564 23.1893
rtibia 91.6159
rfoot 1.94502 3.12992
rtoes -16.792
lfemur -25.819 -3.04895 -24.6529
ltibia 34.98
lfoot -16.1539 -11.2406
ltoes -8.80947
181
root 4.42369 18.0805 20.8722 -170.727 17.4703 -181.033
lowerback 3.74683 2.89141 1.94105
upperback -7.59527 4.30666 -2.2866
thorax -9.84505 2.02353 -4.07129
lowerneck 11.8151 -11.3392 -31.2766
upperneck 7.0335 -19.8757 34.2743
head 7.41611 -10.3429 16.6487
rclavicle -6.75122e-014 -1.39149e-015
rhumerus -35.0639 -9.09927 -82.3127
rradius 27.2542
rwrist 26.2879
rhand -9.39708 -1.84486
rfingers 7.12502
rthumb 16.5642 -31.1579
lclavicle -6.75122e-014 -1.39149e-015
lhumerus -43.4017 -3.13925 83.7369
lradius 35.1052
lwrist 30.9462
lhand -14.143 -11.7821
lfingers 7.12502
lthumb 11.9912 17.8545
rfemur -49.8392 -2.54688 23.3248
rtibia 92.9126
rfoot 0.647142 2.50047
rtoes -16.8763
lfemur -24.9688 -3.1351 -24.8045
ltibia 33.9846
lfoot -15.8701 -11.4018
ltoes -8.70028
182
root 4.43485 18.1122 20.8088 -170.828 17.2563 -181.141
lowerback 3.85207 2.73642 1.77304
upperback -7.52063 4.07475 -2.26648
thorax -9.85471 1.92004 -3.93315
lowerneck 11.6786 -11.3091 -31.2758
upperneck 7.15112 -19.8199 34.1748
head 7.43856 -10.3063 16.6058
rclavicle -6.01572e-014 -1.76918e-014
rhumerus -35.2213 -8.71614 -82.2897
rradius 27.6371
rwrist 25.4707
rhand -9.7224 -1.89094
rfingers 7.12502
rthumb 16.251 -31.2299
lclavicle -6.01572e-014 -1.76918e-014
lhumerus -42.7726 -2.92201 83.5276
lradius 35.3873
lwrist 31.3352
lhand -14.8724 -11.9675
lfingers 7.12502
lthumb 11.2878 17.7087
rfemur -51.3947 -2.4231 23.4393
rtibia 94.0248
rfoot -0.622707 1.96589
rtoes -17.0894
lfemur -24.1269 -3.22354 -24.9634
ltibia 32.9983
lfoot -15.5719 -11.6112
ltoes -8.4217
183
root 4.44732 18.1426 20.7459 -170.927 16.9992 -181.258
lowerback 3.95798 2.5678 1.57789
upperback -7.45774 3.82392 -2.24101
thorax -9.87983 1.8098 -3.77203
lowerneck 11.5673 -11.2721 -31.2799
upperneck 7.27136 -19.7593 34.0773
head 7.45642 -10.2693 16.5686
rclavicle -1.69961e-014 8.94531e-015
rhumerus -35.3964 -8.36735 -82.2436
rradius 27.9865
rwrist 24.7162
rhand -10.0528 -1.938
rfingers 7.12502
rthumb 15.9328 -31.3026
lclavicle -1.69961e-014 8.94531e-015
lhumerus -42.1832 -2.68546 83.3253
lradius 35.6903
lwrist 31.8244
lhand -15.6191 -12.1689
lfingers 7.12502
lthumb 10.5676 17.5455
rfemur -52.8854 -2.30202 23.5392
rtibia 94.9535
rfoot -1.88032 1.54152
rtoes -17.4774
lfemur -23.3012 -3.30103 -25.126
ltibia 32.0288
lfoot -15.2665 -11.8747
ltoes -8.07984
184
root 4.46091 18.1715 20.6831 -171.02 16.7065 -181.374
lowerback 4.04435 2.39267 1.37065
upperback -7.39823 3.56396 -2.21362
thorax -9.89664 1.69685 -3.59904
lowerneck 11.4765 -11.2314 -31.2912
upperneck 7.36815 -19.6962 34.0032
head 7.46719 -10.2332 16.5458
rclavicle -1.51573e-015 -3.57812e-015
rhumerus -35.5765 -8.05246 -82.1849
rradius 28.315
rwrist 23.9883
rhand -10.3526 -2.01792
rfingers 7.12502
rthumb 15.6441 -31.4054
lclavicle -1.51573e-015 -3.57812e-015
lhumerus -41.6191 -2.46113 83.1411
lradius 36.0225
lwrist 32.4012
lhand -16.3918 -12.3335
lfingers 7.12502
lthumb 9.82212 17.4174
rfemur -54.3158 -2.17932 23.6329
rtibia 95.7028
rfoot -3.07961 1.24054
rtoes -17.8967
lfemur -22.4996 -3.35312 -25.284
ltibia 31.0862
lfoot -14.9522 -12.1965
ltoes -7.69006
185
root 4.47556 18.199 20.6205 -171.112 16.3843 -181.482
lowerback 4.14056 2.21254 1.15775
upperback -7.3451 3.29744 -2.18333
thorax -9.92535 1.58122 -3.41916
lowerneck 11.3907 -11.1939 -31.2917
upperneck 7.47013 -19.6366 33.9258
head 7.47827 -10.1981 16.5192
rclavicle -1.25731e-014 1.15295e-014
rhumerus -35.7619 -7.78387 -82.1104
rradius 28.6134
rwrist 23.3329
rhand -10.6354 -2.13712
rfingers 7.12502
rthumb 15.3717 -31.5457
lclavicle -1.25731e-014 1.15295e-014
lhumerus -41.0709 -2.25026 82.9731
lradius 36.3614
lwrist 33.0469
lhand -17.1532 -12.4486
lfingers 7.12502
lthumb 9.08753 17.3357
rfemur -55.6762 -2.05415 23.7271
rtibia 96.2724
rfoot -4.21187 1.06976
rtoes -18.3474
lfemur -21.7204 -3.37831 -25.4288
ltibia 30.1789
lfoot -14.6145 -12.5904
ltoes -7.15119
186
root 4.49136 18.2253 20.5582 -171.2 16.0302 -181.582
lowerback 4.23983 2.02625 0.937992
upperback -7.29164 3.02202 -2.1483
thorax -9.95448 1.46206 -3.2285
lowerneck 11.2944 -11.1657 -31.2908
upperneck 7.57178 -19.588 33.8561
head 7.49679 -10.1672 16.4932
rclavicle -1.54058e-014 1.86858e-014
rhumerus -35.9408 -7.55549 -82.0228
rradius 28.8821
rwrist 22.7589
rhand -10.9326 -2.23985
rfingers 7.12502
rthumb 15.0854 -31.6702
lclavicle -1.54058e-014 1.86858e-014
lhumerus -40.5275 -2.06063 82.8283
lradius 36.7071
lwrist 33.7679
lhand -17.8833 -12.5798
lfingers 7.12502
lthumb 8.38291 17.2338
rfemur -56.9674 -1.93269 23.8262
rtibia 96.6656
rfoot -5.27457 1.01545
rtoes -18.8078
lfemur -20.9706 -3.37414 -25.5574
ltibia 29.3159
lfoot -14.2333 -13.0662
ltoes -6.41026
187
root 4.50819 18.2498 20.496 -171.286 15.6597 -181.673
lowerback 4.33947 1.84235 0.717742
upperback -7.23217 2.74886 -2.11388
thorax -9.9747 1.34409 -3.03719
lowerneck 11.1926 -11.1491 -31.2724
upperneck 7.66756 -19.5514 33.7887
head 7.5176 -10.1407 16.4613
rclavicle -4.59317e-014 8.54774e-015
rhumerus -36.1025 -7.39545 -81.917
rradius 29.1093
rwrist 22.2994
rhand -11.2039 -2.33303
rfingers 7.12502
rthumb 14.8241 -31.7828
lclavicle -4.59317e-014 8.54774e-015
lhumerus -39.9684 -1.90833 82.7074
lradius 37.0448
lwrist 34.545
lhand -18.5668 -12.6943
lfingers 7.12502
lthumb 7.72328 17.1446
rfemur -58.1878 -1.80295 23.9311
rtibia 96.8883
rfoot -6.27888 1.06057
rtoes -19.2803
lfemur -20.2487 -3.3278 -25.67
ltibia 28.5025
lfoot -13.8282 -13.6218
ltoes -5.49233
188
root 4.52596 18.2727 20.4338 -171.369 15.279 -181.757
lowerback 4.44218 1.66106 0.488863
upperback -7.17488 2.47856 -2.0771
thorax -9.99719 1.22839 -2.83825
lowerneck 11.0849 -11.1429 -31.2554
upperneck 7.77123 -19.5299 33.7272
head 7.54923 -10.1206 16.4299
rclavicle -1.21756e-015 3.77691e-015
rhumerus -36.2605 -7.30035 -81.7855
rradius 29.291
rwrist 21.9591
rhand -11.4804 -2.36942
rfingers 7.12502
rthumb 14.5577 -31.8386
lclavicle -1.21756e-015 3.77691e-015
lhumerus -39.4044 -1.78864 82.6119
lradius 37.3706
lwrist 35.3493
lhand -19.1999 -12.8072
lfingers 7.12502
lthumb 7.11216 17.0533
rfemur -59.3432 -1.66185 24.0385
rtibia 96.9461
rfoot -7.21839 1.18203
rtoes -19.725
lfemur -19.5593 -3.24668 -25.7683
ltibia 27.7385
lfoot -13.392 -14.2447
ltoes -4.47614
